<?xml version="1.0" standalone="no"?>
<!DOCTYPE svg PUBLIC "-//W3C//DTD SVG 20010904//EN"
 "http://www.w3.org/TR/2001/REC-SVG-20010904/DTD/svg10.dtd">
<svg version="1.0" xmlns="http://www.w3.org/2000/svg"
 width="512.000000pt" height="512.000000pt" viewBox="0 0 512.000000 512.000000"
 preserveAspectRatio="xMidYMid meet">
<metadata>
Created by potrace 1.11, written by Peter Selinger 2001-2013
</metadata>
<g transform="translate(0.000000,512.000000) scale(0.100000,-0.100000)"
fill="#000000" stroke="none">
<path d="M371 5104 c-30 -8 -77 -27 -105 -42 -65 -34 -174 -142 -208 -208 -62
-115 -58 34 -58 -2294 0 -2328 -4 -2179 58 -2294 34 -65 143 -174 208 -208
115 -62 -34 -58 2294 -58 2328 0 2179 -4 2294 58 65 34 174 143 208 208 62
115 58 -34 58 2294 0 2328 4 2179 -58 2294 -34 65 -143 174 -208 208 -115 62
34 58 -2299 57 -1828 0 -2138 -2 -2184 -15z m1259 -1774 l0 -70 -480 0 -480 0
0 -315 0 -315 405 0 405 0 0 -65 0 -65 -405 0 -405 0 0 -395 0 -395 -75 0 -75
0 0 845 0 845 555 0 555 0 0 -70z m460 -705 l0 -775 490 0 490 0 0 -70 0 -70
-570 0 -570 0 0 845 0 845 80 0 80 0 0 -775z m1495 414 c149 -198 275 -364
280 -369 6 -5 119 136 288 361 l278 369 85 0 c47 0 83 -3 80 -7 -2 -5 -147
-195 -320 -423 -174 -228 -316 -419 -316 -425 0 -5 140 -194 310 -419 171
-224 310 -410 310 -412 0 -2 -38 -4 -84 -4 l-83 0 -269 359 c-249 333 -270
358 -285 343 -9 -10 -132 -171 -273 -359 l-257 -343 -84 0 c-47 0 -85 3 -85 6
0 3 140 190 310 415 171 225 310 411 310 414 0 3 -141 191 -313 418 -172 227
-316 418 -320 425 -6 9 12 12 80 11 l88 0 270 -360z"/>
</g>
</svg>
