<svg version="1" xmlns="http://www.w3.org/2000/svg" width="666.667" height="666.667" viewBox="0 0 500.000000 500.000000"><path d="M52.9 6.2c0 .7-.2 2-.4 2.8-.2.8-.8 4.2-1.3 7.5-.6 3.3-2 11.4-3.1 18-3 17.3-7.8 45.4-8.7 51-.3 1.6-.7 4.2-.9 5.7-.3 1.6-.7 4.3-1 6-.3 1.8-.8 4-1 4.8-.2.8-.6 3.5-.9 6-.3 2.5-.8 5.6-1.1 7-.7 3.7-2.4 13-3 17-.3 1.9-2.3 13.6-4.4 26-2.1 12.4-3.7 22.6-3.7 22.7.1.2 2.6-.7 5.5-1.8 5.4-2 20.7-6.6 24.5-7.3 1.1-.2 3.7-.7 5.6-1 1.9-.3 4.9-.8 6.5-1.1 4.2-.8 19.9-1.8 26.5-1.8 32.1.1 59.4 11.5 71.2 29.7 6.5 10.1 8.7 22.4 6.2 34.3-3.5 17.1-18.7 31.5-38.9 36.9-7.2 1.9-29.8 2.7-37 1.3-26.2-5.1-46.7-13.8-68.4-29-6.2-4.3-11.4-7.9-11.5-7.9-.1 0-.2.8-.3 1.7-.1 1-1.1 7-2.2 13.3-2.6 15-3 17.5-3.5 20.7C6.7 274 4 289.5 3.5 292c-.2 1.3-.7 4.2-1 6.5-.3 2.2-.8 4.7-1 5.5-.2.8-.6 3.2-.9 5.3l-.6 3.8 13.4 6.5c19 9.1 44.4 17 61.1 19 2.3.2 5.4.7 6.6.9 9.5 2 41.7 2.6 58.4 1.3 11.4-1 30.6-4.4 35.7-6.3 1-.4 1.6-.1 1.5.7-.1 1.1 1.4 16.4 1.8 17.8.1.3.7 3.2 1.4 6.5 10.1 46.9 40.3 87 80.9 107.4 10.6 5.3 19.8 8.8 29.7 11.3 8.4 2.1 9.7 2.3 15.8 3.2 2 .3 5.4.9 7.5 1.2 5.3.9 27.4.9 35.7 0 16-1.7 34.9-6.8 49.9-13.6 3.8-1.6 6.9-3 7-3 .2 0 12.9 14.1 22.8 25.4l3.4 3.8 5.5-1.1c3-.6 7-1.3 8.9-1.6 1.9-.3 4.6-.7 6-1 1.4-.3 3.9-.7 5.5-.9 3.7-.6 38.5-6.5 40.2-6.9 1.1-.2-6.5-9.4-21.1-25.7-1.7-1.9-6-6.9-9.6-11-3.6-4.1-8-9.2-9.9-11.2-6.4-7.1-6.4-6.9-2-12.4 4.4-5.4 12.2-18 16.3-26.1 6.2-12.4 12.7-34.1 15.1-50.3 1.3-9.2 1.3-40.4 0-50-6.4-44.6-27.5-82.6-59.5-106.9-13-9.9-25-16.6-38-21.3-3-1.1-6.4-2.3-7.5-2.8-2.8-1.3-17-4.7-22.8-5.5-2.7-.3-5.9-.9-7-1.1-7.4-1.6-34.1-1-48.7 1.1-10.8 1.5-30.8 8-41.7 13.4-3.4 1.7-6.4 3.1-6.6 3.1-.3 0-1.5-1.9-2.8-4.3-1.2-2.3-2.7-5.1-3.3-6.2-2.4-4.3-11.2-15.3-16.5-20.4-17.3-16.6-40.7-28.1-66.5-32.8-10-1.8-32.3-2.3-47.4-1-5.2.4-9.1.4-8.9 0 .3-.4.8-2.6 1.1-4.8.4-2.2.8-4.7 1.1-5.5.2-.8.6-3.5 1-6 .3-2.5 1.1-7.7 1.8-11.5l1.2-7 61.8-.3c33.9-.1 61.7-.5 61.8-1 .3-2.6.4-68.9.1-70-.3-.9-20-1.2-93.8-1.2-74 0-93.4.3-93.5 1.2zm295.6 231.5c29.1 6.7 51.1 27.9 60.1 57.8 2.3 7.7 2.7 11.1 2.9 23.5.3 12.4 0 15.8-2 23.6-2.2 8.6-6.8 19.8-9.7 23.7-1.3 1.7-1.9 1.2-8-6-13.6-15.9-11.7-14.5-17.9-13.8-3 .3-6.5.7-7.9 1-1.4.2-4.5.7-7 1-9.8 1.2-12.7 1.6-18.5 2.5-3.3.5-8.2 1.2-11 1.5-2.7.4-6.1.8-7.5 1-1.4.2-4.5.7-7 1-2.5.4-4.6.8-4.7.9-.2.1.5 1.1 1.5 2.2.9 1 4.6 5.3 8.2 9.4 3.6 4.1 7.9 9.1 9.6 11 8.4 9.4 21.4 24.6 21.4 25.1 0 1.3-12.2 2.7-21.5 2.4-28.4-.9-52.5-16.5-66.5-42.8-6.8-12.8-9.2-22.9-9.6-39.2-.4-15.4.8-23.1 5.3-35 7.3-19.3 22-35.9 39.8-44.8 5.1-2.5 16.7-6.2 22-7 6.3-.9 22.2-.4 28 1z"/></svg>