<?xml version="1.0" standalone="no"?>
<!DOCTYPE svg PUBLIC "-//W3C//DTD SVG 20010904//EN"
 "http://www.w3.org/TR/2001/REC-SVG-20010904/DTD/svg10.dtd">
<svg version="1.0" xmlns="http://www.w3.org/2000/svg"
 width="700.000000pt" height="700.000000pt" viewBox="0 0 700.000000 700.000000"
 preserveAspectRatio="xMidYMid meet">
<metadata>
Created by potrace 1.11, written by Peter Selinger 2001-2013
</metadata>
<g transform="translate(0.000000,700.000000) scale(0.100000,-0.100000)"
fill="#000000" stroke="none">
<path d="M3374 6950 c-123 -36 -230 -123 -284 -233 -41 -84 -45 -105 -44 -224
0 -99 2 -105 42 -187 143 -288 512 -349 737 -122 91 91 134 195 135 321 1 198
-122 370 -310 438 -75 27 -197 30 -276 7z"/>
<path d="M2430 5963 c-52 -8 -127 -37 -180 -71 -35 -22 -425 -405 -1095 -1076
-792 -793 -1046 -1053 -1067 -1092 -123 -235 -37 -512 197 -635 139 -74 326
-63 459 26 28 19 520 503 1093 1077 1105 1107 1075 1075 1109 1202 16 61 11
196 -9 252 -39 107 -114 204 -192 250 -92 53 -219 80 -315 67z"/>
<path d="M4387 5950 c-38 -10 -93 -33 -124 -52 -37 -23 -537 -516 -1540 -1519
-816 -816 -1514 -1515 -1550 -1553 -96 -101 -143 -215 -138 -337 8 -218 158
-399 366 -442 73 -15 121 -15 198 2 133 28 58 -43 1717 1617 989 987 1555
1560 1577 1595 114 178 86 419 -66 570 -116 116 -282 160 -440 119z"/>
<path d="M5430 4958 c-30 -4 -89 -24 -130 -45 -73 -35 -115 -76 -1626 -1587
-1663 -1663 -1587 -1582 -1623 -1716 -41 -154 7 -327 123 -441 57 -56 166
-114 239 -128 111 -20 239 6 335 68 71 46 3124 3105 3157 3164 15 26 35 79 45
117 82 320 -189 616 -520 568z"/>
<path d="M6470 3962 c-70 -8 -167 -43 -225 -81 -16 -11 -499 -489 -1072 -1062
-1109 -1109 -1085 -1082 -1119 -1212 -18 -71 -11 -199 15 -268 45 -118 125
-206 236 -259 144 -69 308 -59 443 27 51 32 2061 2033 2128 2118 109 138 121
351 28 511 -50 87 -154 171 -254 203 -44 14 -147 27 -180 23z"/>
<path d="M3410 945 c-153 -31 -282 -139 -339 -282 -95 -243 29 -515 277 -606
63 -22 227 -32 250 -15 6 6 12 8 12 5 0 -11 100 32 146 64 252 172 275 528 47
729 -56 49 -98 72 -173 94 -72 21 -152 25 -220 11z"/>
</g>
</svg>
